<svg width="1250" height="390" viewBox="0 0 1250 390" fill="none" xmlns="http://www.w3.org/2000/svg">
<g opacity="0.7">
<path d="M277.942 224.614L283.962 257.371C287.163 274.791 304.541 285.775 321.647 281.191C338.752 276.607 348.311 258.404 342.375 241.718L331.211 210.339C330.767 209.089 329.437 208.39 328.155 208.734L279.786 221.696C278.505 222.039 277.702 223.309 277.942 224.614Z" fill="#FC6076"/>
<path d="M283.962 257.371L287.896 256.648L283.962 257.371ZM277.942 224.614L281.876 223.891L281.876 223.891L277.942 224.614ZM342.375 241.718L346.143 240.377L346.143 240.377L342.375 241.718ZM331.211 210.339L327.443 211.68L327.443 211.68L331.211 210.339ZM309.593 322.992C307.459 323.563 306.193 325.757 306.765 327.891C307.336 330.025 309.53 331.291 311.664 330.719L309.593 322.992ZM355.075 319.086C357.208 318.514 358.475 316.32 357.903 314.187C357.331 312.053 355.138 310.786 353.004 311.358L355.075 319.086ZM287.896 256.648L281.876 223.891L274.008 225.337L280.028 258.095L287.896 256.648ZM320.612 277.327C305.762 281.307 290.675 271.771 287.896 256.648L280.028 258.095C283.651 277.81 303.32 290.243 322.682 285.055L320.612 277.327ZM338.606 243.059C343.76 257.546 335.461 273.348 320.612 277.327L322.682 285.055C342.044 279.866 352.862 259.263 346.143 240.377L338.606 243.059ZM327.443 211.68L338.606 243.059L346.143 240.377L334.98 208.998L327.443 211.68ZM329.191 212.597C328.457 212.794 327.697 212.394 327.443 211.68L334.98 208.998C333.837 205.784 330.416 203.987 327.12 204.87L329.191 212.597ZM280.821 225.559L329.191 212.597L327.12 204.87L278.751 217.832L280.821 225.559ZM281.876 223.891C282.013 224.636 281.554 225.363 280.821 225.559L278.751 217.832C275.455 218.715 273.391 221.982 274.008 225.337L281.876 223.891ZM317.828 282.392L328.461 322.077L336.188 320.006L325.556 280.321L317.828 282.392ZM311.664 330.719L355.075 319.086L353.004 311.358L309.593 322.992L311.664 330.719Z" fill="#FC6076"/>
<circle cx="1126" cy="253" r="48" fill="#F8CE90"/>
<g clip-path="url(#clip0_1194_14082)">
<path d="M1088.77 324.172L1087.42 321.494L1087.42 321.494L1088.77 324.172ZM1083.16 321.775L1085.83 320.423L1085.83 320.423L1083.16 321.775ZM1092.86 316.877C1092.11 315.398 1090.31 314.804 1088.83 315.551C1087.35 316.297 1086.75 318.102 1087.5 319.581L1092.86 316.877ZM1083.29 311.24C1084.04 312.719 1085.84 313.313 1087.32 312.566C1088.8 311.819 1089.39 310.015 1088.65 308.536L1083.29 311.24ZM1078.95 313.434L1076.27 314.786L1076.27 314.786L1078.95 313.434ZM1081.68 315.355L1082.56 312.487L1082.56 312.487L1081.68 315.355ZM1083.23 318.433L1086.06 319.428L1086.06 319.428L1083.23 318.433ZM1100.66 314.989C1102.14 314.243 1102.74 312.438 1101.99 310.959C1101.24 309.48 1099.44 308.886 1097.96 309.633L1100.66 314.989ZM1088.3 314.508C1086.82 315.255 1086.23 317.059 1086.98 318.538C1087.72 320.017 1089.53 320.611 1091.01 319.864L1088.3 314.508ZM1085.14 308.252C1083.66 308.999 1083.07 310.803 1083.82 312.282C1084.56 313.762 1086.37 314.355 1087.85 313.609L1085.14 308.252ZM1097.51 308.733C1098.98 307.987 1099.58 306.183 1098.83 304.703C1098.08 303.224 1096.28 302.631 1094.8 303.377L1097.51 308.733ZM1110.15 278.493L1111.5 281.171L1111.5 281.171L1110.15 278.493ZM1099.03 284.107L1097.68 281.429L1097.68 281.429L1099.03 284.107ZM1118.68 323.032L1117.33 320.353L1117.33 320.353L1118.68 323.032ZM1129.8 317.418L1128.45 314.739L1129.8 317.418ZM1135.25 286.754L1137.93 285.402L1135.25 286.754ZM1138.06 292.315L1135.38 293.667L1138.06 292.315ZM1093.36 293.848L1092.01 291.17L1093.36 293.848ZM1108.57 303.712L1105.89 305.064L1108.57 303.712ZM1107.47 321.81L1106.12 319.131L1106.12 319.131L1107.47 321.81ZM1149.88 288.09L1147.21 289.442L1147.21 289.442L1149.88 288.09ZM1145.54 290.283C1144.79 288.804 1142.99 288.211 1141.51 288.957C1140.03 289.704 1139.43 291.508 1140.18 292.987L1145.54 290.283ZM1135.97 284.646C1136.72 286.125 1138.52 286.719 1140 285.973C1141.48 285.226 1142.07 283.422 1141.33 281.943L1135.97 284.646ZM1145.67 279.749L1148.35 278.397L1148.35 278.397L1145.67 279.749ZM1145.59 283.091L1148.43 284.085L1148.43 284.085L1145.59 283.091ZM1147.15 286.168L1148.03 283.3L1148.03 283.3L1147.15 286.168ZM1136.88 289.983C1135.4 290.73 1134.81 292.534 1135.56 294.013C1136.3 295.492 1138.11 296.086 1139.59 295.339L1136.88 289.983ZM1143.69 293.271C1145.16 292.524 1145.76 290.72 1145.01 289.241C1144.26 287.762 1142.46 287.168 1140.98 287.915L1143.69 293.271ZM1140.53 287.015C1142.01 286.269 1142.6 284.464 1141.85 282.985C1141.11 281.506 1139.3 280.912 1137.82 281.659L1140.53 287.015ZM1133.73 283.727C1132.25 284.474 1131.65 286.278 1132.4 287.757C1133.15 289.236 1134.95 289.83 1136.43 289.083L1133.73 283.727ZM1087.42 321.494C1087.36 321.527 1087.18 321.585 1086.85 321.445C1086.51 321.302 1086.11 320.973 1085.83 320.423L1080.48 323.126C1082.16 326.459 1086.29 328.784 1090.12 326.85L1087.42 321.494ZM1087.5 319.581C1087.78 320.131 1087.8 320.651 1087.72 321.006C1087.64 321.353 1087.49 321.461 1087.42 321.494L1090.12 326.85C1093.96 324.916 1094.54 320.21 1092.86 316.877L1087.5 319.581ZM1088.65 308.536C1086.97 305.203 1082.83 302.878 1079 304.812L1081.7 310.168C1081.77 310.135 1081.95 310.077 1082.27 310.217C1082.61 310.361 1083.01 310.69 1083.29 311.24L1088.65 308.536ZM1079 304.812C1075.17 306.746 1074.58 311.453 1076.27 314.786L1081.62 312.082C1081.35 311.531 1081.32 311.012 1081.4 310.656C1081.49 310.309 1081.64 310.201 1081.7 310.168L1079 304.812ZM1076.27 314.786C1077.35 316.924 1079.5 317.825 1080.8 318.223L1082.56 312.487C1082.18 312.369 1081.9 312.24 1081.72 312.125C1081.55 312.013 1081.57 311.981 1081.62 312.082L1076.27 314.786ZM1085.83 320.423C1085.88 320.523 1085.84 320.525 1085.86 320.319C1085.87 320.109 1085.93 319.808 1086.06 319.428L1080.4 317.438C1079.95 318.719 1079.4 320.988 1080.48 323.126L1085.83 320.423ZM1097.96 309.633L1092.4 312.438L1095.11 317.794L1100.66 314.989L1097.96 309.633ZM1092.4 312.438L1088.3 314.508L1091.01 319.864L1095.11 317.794L1092.4 312.438ZM1087.85 313.609L1091.95 311.539L1089.24 306.182L1085.14 308.252L1087.85 313.609ZM1091.95 311.539L1097.51 308.733L1094.8 303.377L1089.24 306.182L1091.95 311.539ZM1080.8 318.223C1080.62 318.169 1080.51 318.087 1080.46 318.04C1080.41 317.993 1080.39 317.958 1080.38 317.942C1080.37 317.925 1080.36 317.889 1080.35 317.82C1080.34 317.75 1080.34 317.614 1080.4 317.438L1086.06 319.428C1086.6 317.913 1086.31 316.382 1085.74 315.238C1085.16 314.094 1084.1 312.959 1082.56 312.487L1080.8 318.223ZM1108.8 275.815L1097.68 281.429L1100.38 286.785L1111.5 281.171L1108.8 275.815ZM1120.03 325.71L1131.15 320.096L1128.45 314.739L1117.33 320.353L1120.03 325.71ZM1132.58 288.106L1135.38 293.667L1140.74 290.963L1137.93 285.402L1132.58 288.106ZM1131.15 320.096C1141.84 314.698 1146.14 301.655 1140.74 290.963L1135.38 293.667C1139.29 301.401 1136.18 310.835 1128.45 314.739L1131.15 320.096ZM1117.33 320.353C1109.69 324.208 1100.39 321.23 1096.4 313.71L1091.1 316.523C1096.62 326.921 1109.47 331.039 1120.03 325.71L1117.33 320.353ZM1096.4 313.71C1096.35 313.614 1096.3 313.517 1096.25 313.419L1090.9 316.122C1090.96 316.257 1091.03 316.39 1091.1 316.523L1096.4 313.71ZM1097.68 281.429C1087.12 286.759 1082.8 299.542 1087.89 310.157L1093.3 307.564C1089.62 299.887 1092.74 290.64 1100.38 286.785L1097.68 281.429ZM1087.89 310.157C1087.96 310.293 1088.02 310.427 1088.09 310.562L1093.45 307.858C1093.4 307.76 1093.35 307.662 1093.3 307.564L1087.89 310.157ZM1111.5 281.171C1119.24 277.267 1128.67 280.372 1132.58 288.106L1137.93 285.402C1132.53 274.71 1119.49 270.418 1108.8 275.815L1111.5 281.171ZM1094.71 296.526C1095.62 296.07 1097.26 296.054 1099.56 297.549C1101.79 298.997 1104.14 301.592 1105.89 305.064L1111.25 302.36C1109.11 298.11 1106.1 294.636 1102.83 292.515C1099.62 290.439 1095.61 289.352 1092.01 291.17L1094.71 296.526ZM1105.89 305.064C1107.65 308.536 1108.34 311.965 1108.18 314.622C1108.01 317.364 1107.03 318.675 1106.12 319.131L1108.83 324.488C1112.43 322.67 1113.94 318.793 1114.17 314.985C1114.4 311.092 1113.4 306.61 1111.25 302.36L1105.89 305.064ZM1106.12 319.131C1105.4 319.495 1104.26 319.586 1102.62 318.85C1100.99 318.116 1099.14 316.659 1097.43 314.507L1092.73 318.236C1094.88 320.949 1097.45 323.107 1100.16 324.324C1102.87 325.539 1106 325.916 1108.83 324.488L1106.12 319.131ZM1093.27 306.268C1092.55 303.616 1092.48 301.262 1092.86 299.51C1093.24 297.755 1093.99 296.89 1094.71 296.526L1092.01 291.17C1089.18 292.598 1087.62 295.337 1086.99 298.237C1086.36 301.14 1086.57 304.491 1087.48 307.834L1093.27 306.268ZM1149.83 296.711C1153.66 294.777 1154.24 290.07 1152.56 286.738L1147.21 289.442C1147.48 289.992 1147.51 290.511 1147.42 290.867C1147.34 291.214 1147.19 291.322 1147.12 291.355L1149.83 296.711ZM1140.18 292.987C1141.86 296.32 1146 298.645 1149.83 296.711L1147.12 291.355C1147.06 291.388 1146.88 291.446 1146.55 291.306C1146.22 291.162 1145.82 290.834 1145.54 290.283L1140.18 292.987ZM1141.33 281.943C1141.05 281.392 1141.02 280.873 1141.11 280.517C1141.19 280.17 1141.34 280.062 1141.41 280.029L1138.7 274.673C1134.87 276.607 1134.29 281.314 1135.97 284.646L1141.33 281.943ZM1141.41 280.029C1141.47 279.996 1141.65 279.938 1141.98 280.078C1142.31 280.222 1142.72 280.55 1142.99 281.101L1148.35 278.397C1146.67 275.064 1142.54 272.739 1138.7 274.673L1141.41 280.029ZM1142.99 281.101C1142.94 281 1142.98 280.998 1142.97 281.204C1142.96 281.414 1142.9 281.716 1142.76 282.096L1148.43 284.085C1148.88 282.804 1149.43 280.535 1148.35 278.397L1142.99 281.101ZM1152.56 286.738C1151.48 284.599 1149.33 283.699 1148.03 283.3L1146.27 289.036C1146.65 289.154 1146.93 289.283 1147.11 289.398C1147.28 289.51 1147.26 289.542 1147.21 289.442L1152.56 286.738ZM1139.59 295.339L1143.69 293.271L1140.98 287.915L1136.88 289.983L1139.59 295.339ZM1137.82 281.659L1133.73 283.727L1136.43 289.083L1140.53 287.015L1137.82 281.659ZM1142.76 282.096C1142.23 283.61 1142.51 285.142 1143.09 286.285C1143.67 287.429 1144.73 288.565 1146.27 289.036L1148.03 283.3C1148.21 283.355 1148.32 283.436 1148.37 283.484C1148.42 283.53 1148.44 283.565 1148.45 283.581C1148.46 283.598 1148.47 283.635 1148.48 283.703C1148.49 283.773 1148.49 283.91 1148.43 284.085L1142.76 282.096Z" fill="#F29C21"/>
</g>
<rect x="1161.76" y="30" width="124.784" height="3.32756" transform="rotate(45 1161.76 30)" fill="#171717"/>
<rect x="1152.35" y="39.4116" width="124.784" height="3.32756" transform="rotate(45 1152.35 39.4116)" fill="#171717"/>
<circle cx="1223" cy="320" r="5" fill="#FC6076"/>
<circle cx="209" cy="44" r="5" fill="#F5B04D"/>
<path fill-rule="evenodd" clip-rule="evenodd" d="M1085.08 76.0841C1085.54 75.6262 1085.95 75.134 1086.3 74.6153C1086.88 74.2057 1087.43 73.7391 1087.95 73.2222C1091.57 69.6026 1091.87 63.9231 1088.86 59.9574C1090.66 54.7901 1089.03 48.5471 1085.08 44.6021C1081.05 40.565 1074.99 38.6079 1069.66 40.779C1065.7 37.8206 1060.06 38.1412 1056.46 41.7408C1055.95 42.2577 1055.48 42.8083 1055.07 43.3861C1054.55 43.739 1054.06 44.1448 1053.6 44.6027C1051.76 46.45 1050.52 48.7623 1050.29 51.2095C1050.06 53.6388 1050.84 56.0575 1052.73 58.0324L1054.53 60.8358C1054.96 61.5189 1054.95 62.3977 1054.49 63.0684L1051.71 67.1466L1051.71 67.1533C1050.05 69.565 1050.34 72.8224 1052.41 74.8952L1054.79 77.273C1056.86 79.3458 1060.12 79.6413 1062.53 77.9764L1062.54 77.9717L1066.62 75.1925C1067.29 74.7355 1068.17 74.7233 1068.85 75.1616L1071.65 76.9605C1073.63 78.8481 1076.05 79.6261 1078.48 79.3965C1080.92 79.1653 1083.24 77.9314 1085.08 76.0841Z" fill="#A1D434"/>
<path d="M1065.77 53.9039C1068.16 52.7146 1071.35 53.766 1073.64 56.05C1075.82 58.2307 1076.76 61.5658 1075.78 63.9207" stroke="white" stroke-width="4" stroke-linecap="round"/>
<rect x="169" y="147.47" width="111.057" height="2.96153" transform="rotate(135 169 147.47)" fill="#171717"/>
<rect x="160.624" y="139.094" width="111.057" height="2.96153" transform="rotate(135 160.624 139.094)" fill="#171717"/>
<path d="M-4.80354 20.6843C-13.873 28.8223 -19.3382 40.2298 -19.9969 52.3973C-20.6556 64.5649 -16.4537 76.4957 -8.31572 85.5652C-0.177719 94.6347 11.2298 100.1 23.3973 100.759C35.5649 101.417 47.4957 97.2154 56.5652 89.0774L25.8808 54.8808L-4.80354 20.6843Z" fill="#C4E480"/>
<circle cx="62" cy="372" r="17.5" stroke="#171717"/>
</g>
<defs>
<clipPath id="clip0_1194_14082">
<rect width="74.747" height="74.747" fill="white" transform="translate(1160.55 274.346) rotate(105)"/>
</clipPath>
</defs>
</svg>
