<svg width="150" height="50" viewBox="0 0 150 61" fill="none" xmlns="http://www.w3.org/2000/svg">
<path d="M4.095 36V11.25C4.095 8.52 4.905 6.345 6.525 4.725C8.145 3.075 10.455 2.25 13.455 2.25C14.475 2.25 15.45 2.355 16.38 2.565C17.34 2.775 18.15 3.105 18.81 3.555L16.965 8.64C16.575 8.37 16.14 8.16 15.66 8.01C15.18 7.86 14.67 7.785 14.13 7.785C13.11 7.785 12.315 8.085 11.745 8.685C11.205 9.255 10.935 10.125 10.935 11.295V13.545L11.115 16.56V36H4.095ZM0.36 17.73V12.33H17.145V17.73H0.36ZM31.8547 36.36C29.2747 36.36 26.9797 35.82 24.9697 34.74C22.9897 33.66 21.4147 32.19 20.2447 30.33C19.1047 28.44 18.5347 26.295 18.5347 23.895C18.5347 21.465 19.1047 19.32 20.2447 17.46C21.4147 15.57 22.9897 14.1 24.9697 13.05C26.9797 11.97 29.2747 11.43 31.8547 11.43C34.4047 11.43 36.6847 11.97 38.6947 13.05C40.7047 14.1 42.2797 15.555 43.4197 17.415C44.5597 19.275 45.1297 21.435 45.1297 23.895C45.1297 26.295 44.5597 28.44 43.4197 30.33C42.2797 32.19 40.7047 33.66 38.6947 34.74C36.6847 35.82 34.4047 36.36 31.8547 36.36ZM31.8547 30.6C33.0247 30.6 34.0747 30.33 35.0047 29.79C35.9347 29.25 36.6697 28.485 37.2097 27.495C37.7497 26.475 38.0197 25.275 38.0197 23.895C38.0197 22.485 37.7497 21.285 37.2097 20.295C36.6697 19.305 35.9347 18.54 35.0047 18C34.0747 17.46 33.0247 17.19 31.8547 17.19C30.6847 17.19 29.6347 17.46 28.7047 18C27.7747 18.54 27.0247 19.305 26.4547 20.295C25.9147 21.285 25.6447 22.485 25.6447 23.895C25.6447 25.275 25.9147 26.475 26.4547 27.495C27.0247 28.485 27.7747 29.25 28.7047 29.79C29.6347 30.33 30.6847 30.6 31.8547 30.6ZM61.342 36.36C58.762 36.36 56.467 35.82 54.457 34.74C52.477 33.66 50.902 32.19 49.732 30.33C48.592 28.44 48.022 26.295 48.022 23.895C48.022 21.465 48.592 19.32 49.732 17.46C50.902 15.57 52.477 14.1 54.457 13.05C56.467 11.97 58.762 11.43 61.342 11.43C63.892 11.43 66.172 11.97 68.182 13.05C70.192 14.1 71.767 15.555 72.907 17.415C74.047 19.275 74.617 21.435 74.617 23.895C74.617 26.295 74.047 28.44 72.907 30.33C71.767 32.19 70.192 33.66 68.182 34.74C66.172 35.82 63.892 36.36 61.342 36.36ZM61.342 30.6C62.512 30.6 63.562 30.33 64.492 29.79C65.422 29.25 66.157 28.485 66.697 27.495C67.237 26.475 67.507 25.275 67.507 23.895C67.507 22.485 67.237 21.285 66.697 20.295C66.157 19.305 65.422 18.54 64.492 18C63.562 17.46 62.512 17.19 61.342 17.19C60.172 17.19 59.122 17.46 58.192 18C57.262 18.54 56.512 19.305 55.942 20.295C55.402 21.285 55.132 22.485 55.132 23.895C55.132 25.275 55.402 26.475 55.942 27.495C56.512 28.485 57.262 29.25 58.192 29.79C59.122 30.33 60.172 30.6 61.342 30.6ZM89.7043 36.36C87.4243 36.36 85.3693 35.85 83.5393 34.83C81.7093 33.78 80.2543 32.325 79.1743 30.465C78.1243 28.605 77.5993 26.415 77.5993 23.895C77.5993 21.345 78.1243 19.14 79.1743 17.28C80.2543 15.42 81.7093 13.98 83.5393 12.96C85.3693 11.94 87.4243 11.43 89.7043 11.43C91.7443 11.43 93.5293 11.88 95.0593 12.78C96.5893 13.68 97.7743 15.045 98.6143 16.875C99.4543 18.705 99.8743 21.045 99.8743 23.895C99.8743 26.715 99.4693 29.055 98.6593 30.915C97.8493 32.745 96.6793 34.11 95.1493 35.01C93.6493 35.91 91.8343 36.36 89.7043 36.36ZM90.9193 30.6C92.0593 30.6 93.0943 30.33 94.0243 29.79C94.9543 29.25 95.6893 28.485 96.2293 27.495C96.7993 26.475 97.0843 25.275 97.0843 23.895C97.0843 22.485 96.7993 21.285 96.2293 20.295C95.6893 19.305 94.9543 18.54 94.0243 18C93.0943 17.46 92.0593 17.19 90.9193 17.19C89.7493 17.19 88.6993 17.46 87.7693 18C86.8393 18.54 86.0893 19.305 85.5193 20.295C84.9793 21.285 84.7093 22.485 84.7093 23.895C84.7093 25.275 84.9793 26.475 85.5193 27.495C86.0893 28.485 86.8393 29.25 87.7693 29.79C88.6993 30.33 89.7493 30.6 90.9193 30.6ZM97.2643 36V31.05L97.3993 23.85L96.9493 16.695V2.61H103.969V36H97.2643Z" fill="#96B60B"/>
<path d="M110.467 36V11.79H117.487V36H110.467ZM113.977 8.415C112.687 8.415 111.637 8.04 110.827 7.29C110.017 6.54 109.612 5.61 109.612 4.5C109.612 3.39 110.017 2.46 110.827 1.71C111.637 0.959998 112.687 0.584997 113.977 0.584997C115.267 0.584997 116.317 0.944998 117.127 1.665C117.937 2.355 118.342 3.255 118.342 4.365C118.342 5.535 117.937 6.51 117.127 7.29C116.347 8.04 115.297 8.415 113.977 8.415ZM136.017 36.36C133.257 36.36 130.827 35.82 128.727 34.74C126.657 33.66 125.052 32.19 123.912 30.33C122.772 28.44 122.202 26.295 122.202 23.895C122.202 21.465 122.757 19.32 123.867 17.46C125.007 15.57 126.552 14.1 128.502 13.05C130.452 11.97 132.657 11.43 135.117 11.43C137.487 11.43 139.617 11.94 141.507 12.96C143.427 13.95 144.942 15.39 146.052 17.28C147.162 19.14 147.717 21.375 147.717 23.985C147.717 24.255 147.702 24.57 147.672 24.93C147.642 25.26 147.612 25.575 147.582 25.875H127.917V21.78H143.892L141.192 22.995C141.192 21.735 140.937 20.64 140.427 19.71C139.917 18.78 139.212 18.06 138.312 17.55C137.412 17.01 136.362 16.74 135.162 16.74C133.962 16.74 132.897 17.01 131.967 17.55C131.067 18.06 130.362 18.795 129.852 19.755C129.342 20.685 129.087 21.795 129.087 23.085V24.165C129.087 25.485 129.372 26.655 129.942 27.675C130.542 28.665 131.367 29.43 132.417 29.97C133.497 30.48 134.757 30.735 136.197 30.735C137.487 30.735 138.612 30.54 139.572 30.15C140.562 29.76 141.462 29.175 142.272 28.395L146.007 32.445C144.897 33.705 143.502 34.68 141.822 35.37C140.142 36.03 138.207 36.36 136.017 36.36Z" fill="#FF6600"/>
<path d="M29.3548 38.2887C28.3034 38.2887 27.438 39.1448 27.5803 40.1865C27.7732 41.5984 28.1808 42.9834 28.7945 44.3029C29.6813 46.2097 30.9812 47.9422 32.6199 49.4016C34.2586 50.8609 36.204 52.0185 38.345 52.8083C40.486 53.5981 42.7808 54.0047 45.0982 54.0047C47.4157 54.0047 49.7104 53.5981 51.8515 52.8083C53.9925 52.0185 55.9379 50.8609 57.5766 49.4016C59.2153 47.9422 60.5151 46.2097 61.402 44.3029C62.0157 42.9834 62.4233 41.5984 62.6162 40.1865C62.7584 39.1448 61.893 38.2887 60.8417 38.2887V38.2887C59.7904 38.2887 58.9545 39.1472 58.7737 40.1828C58.6048 41.1496 58.307 42.0973 57.8846 43.0054C57.1891 44.5008 56.1696 45.8595 54.8845 47.0041C53.5993 48.1486 52.0736 49.0564 50.3945 49.6759C48.7154 50.2953 46.9157 50.6141 45.0982 50.6141C43.2808 50.6141 41.4811 50.2953 39.8019 49.6759C38.1228 49.0564 36.5971 48.1486 35.312 47.0041C34.0268 45.8595 33.0074 44.5008 32.3119 43.0054C31.8895 42.0973 31.5916 41.1496 31.4228 40.1828C31.2419 39.1472 30.4061 38.2887 29.3548 38.2887V38.2887Z" fill="#FF6600"/>
<path d="M27.9412 59.2433C23.9813 55.0114 30.4196 49.2813 33.3335 47.7183C31.3725 49.0647 30.5707 52.7677 30.1966 55.2677C31.2947 52.9355 34.0578 50.1851 35.0391 49.5223C36.919 49.8752 38.2267 50.2166 35.294 50.3376C32.3613 50.4586 34.0088 54.7818 33.3332 57.6717C32.8433 59.7672 29.4119 60.8149 27.9412 59.2433Z" fill="#FF6600"/>
<path d="M33.3335 47.7183C30.4196 49.2813 23.9813 55.0114 27.9412 59.2433C29.4119 60.8149 32.8433 59.7672 33.3332 57.6717C34.0088 54.7818 32.3613 50.4586 35.294 50.3376C38.2267 50.2166 36.919 49.8752 35.0391 49.5223C33.7701 50.3794 29.5214 54.7277 29.747 57.1478C30.029 60.173 29.8085 50.1384 33.3335 47.7183Z" stroke="#FF6600" stroke-linecap="round"/>
<path d="M22.6932 46.9547C24.8227 46.5486 26.7518 47.3329 27.4497 47.774C25.4056 49.0451 24.9792 50.5573 24.2452 50.7671C23.5111 50.9769 21.9364 50.9312 21.2776 50.3851C20.5882 49.8136 19.7276 47.5203 22.6932 46.9547Z" fill="#FF6600" stroke="#FF6600"/>
</svg>
