<svg width="140" height="61" viewBox="0 0 140 61" fill="none" xmlns="http://www.w3.org/2000/svg">
<path d="M3.54853 34.1969V10.2982C3.54853 7.66208 4.31809 5.56188 5.85722 3.9976C7.39634 2.40436 9.59101 1.60773 12.4412 1.60773C13.4103 1.60773 14.3366 1.70912 15.2202 1.9119C16.1323 2.11467 16.9018 2.43332 17.5289 2.86785L15.776 7.77795C15.4055 7.51723 14.9922 7.31446 14.5362 7.16962C14.0801 7.02478 13.5956 6.95236 13.0825 6.95236C12.1135 6.95236 11.3582 7.24204 10.8166 7.8214C10.3036 8.3718 10.047 9.21187 10.047 10.3416V12.5142L10.2181 15.4255V34.1969H3.54853ZM0 16.5553V11.341H15.947V16.5553H0Z" fill="#96B60B"/>
<path d="M29.9224 34.5445C27.4712 34.5445 25.2907 34.0231 23.3811 32.9802C21.4999 31.9374 20.0036 30.5179 18.892 28.7219C17.8089 26.8969 17.2674 24.8257 17.2674 22.5082C17.2674 20.1618 17.8089 18.0906 18.892 16.2946C20.0036 14.4696 21.4999 13.0502 23.3811 12.0363C25.2907 10.9934 27.4712 10.472 29.9224 10.472C32.3451 10.472 34.5112 10.9934 36.4209 12.0363C38.3305 13.0502 39.8269 14.4551 40.91 16.2511C41.9931 18.0472 42.5346 20.1329 42.5346 22.5082C42.5346 24.8257 41.9931 26.8969 40.91 28.7219C39.8269 30.5179 38.3305 31.9374 36.4209 32.9802C34.5112 34.0231 32.3451 34.5445 29.9224 34.5445ZM29.9224 28.9826C31.034 28.9826 32.0315 28.7219 32.9151 28.2005C33.7987 27.6791 34.497 26.9404 35.01 25.9844C35.5231 24.9995 35.7796 23.8408 35.7796 22.5082C35.7796 21.1467 35.5231 19.988 35.01 19.0321C34.497 18.0761 33.7987 17.3374 32.9151 16.816C32.0315 16.2946 31.034 16.0339 29.9224 16.0339C28.8108 16.0339 27.8132 16.2946 26.9296 16.816C26.0461 17.3374 25.3335 18.0761 24.792 19.0321C24.2789 19.988 24.0224 21.1467 24.0224 22.5082C24.0224 23.8408 24.2789 24.9995 24.792 25.9844C25.3335 26.9404 26.0461 27.6791 26.9296 28.2005C27.8132 28.7219 28.8108 28.9826 29.9224 28.9826Z" fill="#96B60B"/>
<path d="M57.9375 34.5445C55.4863 34.5445 53.3059 34.0231 51.3963 32.9802C49.5151 31.9374 48.0187 30.5179 46.9072 28.7219C45.8241 26.8969 45.2825 24.8257 45.2825 22.5082C45.2825 20.1618 45.8241 18.0906 46.9072 16.2946C48.0187 14.4696 49.5151 13.0502 51.3963 12.0363C53.3059 10.9934 55.4863 10.472 57.9375 10.472C60.3602 10.472 62.5264 10.9934 64.436 12.0363C66.3457 13.0502 67.8421 14.4551 68.9252 16.2511C70.0082 18.0472 70.5498 20.1329 70.5498 22.5082C70.5498 24.8257 70.0082 26.8969 68.9252 28.7219C67.8421 30.5179 66.3457 31.9374 64.436 32.9802C62.5264 34.0231 60.3602 34.5445 57.9375 34.5445ZM57.9375 28.9826C59.0491 28.9826 60.0467 28.7219 60.9303 28.2005C61.8138 27.6791 62.5121 26.9404 63.0252 25.9844C63.5382 24.9995 63.7947 23.8408 63.7947 22.5082C63.7947 21.1467 63.5382 19.988 63.0252 19.0321C62.5121 18.0761 61.8138 17.3374 60.9303 16.816C60.0467 16.2946 59.0491 16.0339 57.9375 16.0339C56.8259 16.0339 55.8284 16.2946 54.9448 16.816C54.0612 17.3374 53.3487 18.0761 52.8071 19.0321C52.2941 19.988 52.0376 21.1467 52.0376 22.5082C52.0376 23.8408 52.2941 24.9995 52.8071 25.9844C53.3487 26.9404 54.0612 27.6791 54.9448 28.2005C55.8284 28.7219 56.8259 28.9826 57.9375 28.9826Z" fill="#96B60B"/>
<path d="M84.8839 34.5445C82.7177 34.5445 80.7653 34.0521 79.0266 33.0671C77.288 32.0533 75.9057 30.6483 74.8796 28.8523C73.882 27.0563 73.3832 24.9416 73.3832 22.5082C73.3832 20.046 73.882 17.9168 74.8796 16.1208C75.9057 14.3248 77.288 12.9343 79.0266 11.9494C80.7653 10.9644 82.7177 10.472 84.8839 10.472C86.822 10.472 88.5179 10.9065 89.9715 11.7756C91.4251 12.6446 92.551 13.9626 93.349 15.7297C94.1471 17.4968 94.5461 19.7563 94.5461 22.5082C94.5461 25.2313 94.1613 27.4908 93.3918 29.2868C92.6222 31.0539 91.5106 32.3719 90.057 33.2409C88.6319 34.11 86.9075 34.5445 84.8839 34.5445ZM86.0382 28.9826C87.1213 28.9826 88.1046 28.7219 88.9882 28.2005C89.8718 27.6791 90.5701 26.9404 91.0831 25.9844C91.6246 24.9995 91.8954 23.8408 91.8954 22.5082C91.8954 21.1467 91.6246 19.988 91.0831 19.0321C90.5701 18.0761 89.8718 17.3374 88.9882 16.816C88.1046 16.2946 87.1213 16.0339 86.0382 16.0339C84.9266 16.0339 83.929 16.2946 83.0455 16.816C82.1619 17.3374 81.4493 18.0761 80.9078 19.0321C80.3948 19.988 80.1382 21.1467 80.1382 22.5082C80.1382 23.8408 80.3948 24.9995 80.9078 25.9844C81.4493 26.9404 82.1619 27.6791 83.0455 28.2005C83.929 28.7219 84.9266 28.9826 86.0382 28.9826ZM92.0664 34.1969V29.4172L92.1947 22.4648L91.7672 15.5559V1.95535H98.4367V34.1969H92.0664Z" fill="#96B60B"/>
<path d="M104.61 34.1969V10.8196H111.279V34.1969H104.61ZM107.944 7.56069C106.719 7.56069 105.721 7.19859 104.952 6.47438C104.182 5.75018 103.797 4.85216 103.797 3.78034C103.797 2.70852 104.182 1.81051 104.952 1.08631C105.721 0.362102 106.719 0 107.944 0C109.17 0 110.167 0.347618 110.937 1.04286C111.707 1.70912 112.091 2.57817 112.091 3.64999C112.091 4.77975 111.707 5.72121 110.937 6.47438C110.196 7.19859 109.198 7.56069 107.944 7.56069Z" fill="#96B60B"/>
<path d="M128.884 34.5445C126.262 34.5445 123.953 34.0231 121.958 32.9802C119.991 31.9374 118.467 30.5179 117.383 28.7219C116.3 26.8969 115.759 24.8257 115.759 22.5082C115.759 20.1618 116.286 18.0906 117.341 16.2946C118.424 14.4696 119.892 13.0502 121.744 12.0363C123.597 10.9934 125.692 10.472 128.029 10.472C130.281 10.472 132.304 10.9644 134.1 11.9494C135.924 12.9053 137.364 14.2958 138.418 16.1208C139.473 17.9168 140 20.0749 140 22.5952C140 22.8559 139.986 23.16 139.957 23.5077C139.929 23.8263 139.9 24.1305 139.872 24.4201H121.188V20.466H136.366L133.801 21.6392C133.801 20.4225 133.558 19.3652 133.074 18.4672C132.589 17.5692 131.92 16.8739 131.065 16.3815C130.209 15.8601 129.212 15.5993 128.072 15.5993C126.932 15.5993 125.92 15.8601 125.036 16.3815C124.181 16.8739 123.511 17.5837 123.027 18.5106C122.542 19.4087 122.3 20.4805 122.3 21.7261V22.769C122.3 24.0436 122.571 25.1733 123.112 26.1582C123.682 27.1142 124.466 27.8529 125.464 28.3743C126.49 28.8668 127.687 29.113 129.055 29.113C130.281 29.113 131.35 28.9247 132.262 28.5481C133.202 28.1715 134.057 27.6066 134.827 26.8535L138.375 30.7642C137.321 31.9808 135.995 32.9223 134.399 33.5886C132.803 34.2259 130.965 34.5445 128.884 34.5445Z" fill="#96B60B"/>
<path d="M29.4471 39.9904C28.4483 39.9904 27.6254 40.8042 27.7689 41.7927C27.9551 43.0755 28.3397 44.3338 28.9148 45.5332C29.7574 47.2905 30.9923 48.8872 32.5492 50.2322C34.1061 51.5772 35.9544 52.6441 37.9885 53.372C40.0227 54.0998 42.2028 54.4745 44.4046 54.4745C46.6063 54.4745 48.7865 54.0998 50.8207 53.372C52.8548 52.6441 54.7031 51.5772 56.26 50.2322C57.8168 48.8872 59.0518 47.2905 59.8944 45.5332C60.4695 44.3338 60.8541 43.0755 61.0403 41.7927C61.1838 40.8042 60.3609 39.9904 59.3621 39.9904V39.9904C58.3632 39.9904 57.5699 40.8068 57.3877 41.7888C57.2257 42.6616 56.946 43.517 56.5526 44.3374C55.8918 45.7156 54.9233 46.9678 53.7023 48.0226C52.4813 49.0774 51.0318 49.9141 49.4365 50.485C47.8412 51.0559 46.1313 51.3497 44.4046 51.3497C42.6778 51.3497 40.968 51.0559 39.3727 50.485C37.7774 49.9141 36.3279 49.0774 35.1069 48.0226C33.8859 46.9678 32.9174 45.7156 32.2566 44.3374C31.8632 43.517 31.5835 42.6616 31.4215 41.7888C31.2392 40.8068 30.446 39.9904 29.4471 39.9904V39.9904Z" fill="#FF6600"/>
<path d="M28.1043 59.3028C24.3421 55.4026 30.4589 50.1217 33.2273 48.6812C31.3642 49.922 30.6025 53.3348 30.2471 55.6388C31.2904 53.4895 33.9155 50.9546 34.8478 50.3438C36.6338 50.6691 37.8762 50.9836 35.0899 51.0952C32.3037 51.2067 33.8689 55.191 33.227 57.8544C32.7616 59.7856 29.5015 60.7512 28.1043 59.3028Z" fill="#FF6600"/>
<path d="M33.2273 48.6812C30.4589 50.1217 24.3421 55.4026 28.1043 59.3028C29.5015 60.7512 32.7616 59.7856 33.227 57.8544C33.8689 55.191 32.3037 51.2067 35.0899 51.0952C37.8762 50.9836 36.6338 50.6691 34.8478 50.3438C33.6422 51.1337 29.6056 55.1411 29.8199 57.3716C30.0879 60.1597 29.8784 50.9116 33.2273 48.6812Z" stroke="#FF6600" stroke-linecap="round"/>
<path d="M23.1185 47.9772C25.1417 47.6029 26.9744 48.3258 27.6375 48.7322C25.6955 49.9037 25.2904 51.2974 24.593 51.4908C23.8955 51.6841 22.3995 51.642 21.7736 51.1387C21.1186 50.612 20.3009 48.4985 23.1185 47.9772Z" fill="#FF6600" stroke="#FF6600"/>
</svg>